<svg width="35" height="35" viewBox="0 0 35 35" fill="none" xmlns="http://www.w3.org/2000/svg">
<path d="M18.8005 17.5L34.7307 1.56977C35.0898 1.21069 35.0898 0.628506 34.7307 0.269425C34.3715 -0.0896553 33.7894 -0.0896553 33.4302 0.269425L17.5 16.1995L1.56985 0.26931C1.21077 -0.0897701 0.62859 -0.0897701 0.269511 0.26931C-0.0896837 0.628391 -0.0896837 1.21057 0.269511 1.56965L16.1996 17.5L0.269396 33.4302C-0.0897986 33.7894 -0.0897986 34.3715 0.269396 34.7307C0.448936 34.9102 0.684222 35 0.919624 35C1.15503 35 1.39031 34.9102 1.56985 34.7307L17.5 18.8005L33.4302 34.7307C33.6099 34.9102 33.8451 35 34.0805 35C34.3159 35 34.5512 34.9102 34.7307 34.7307C35.0898 34.3715 35.0898 33.7894 34.7307 33.4302L18.8005 17.5Z" fill="white"/>
</svg>
