<svg width="187" height="34" viewBox="0 0 187 34" fill="none" xmlns="http://www.w3.org/2000/svg">
<path d="M13.184 26.36C11.36 26.36 9.668 26.036 8.108 25.388C6.572 24.716 5.228 23.792 4.076 22.616C2.924 21.416 2.036 20.036 1.412 18.476C0.788 16.892 0.476 15.2 0.476 13.4C0.476 11.6 0.788 9.92 1.412 8.36C2.036 6.776 2.924 5.396 4.076 4.22C5.228 3.044 6.572 2.12 8.108 1.448C9.668 0.775997 11.36 0.439997 13.184 0.439997C15.224 0.439997 16.988 0.775997 18.476 1.448C19.964 2.12 21.284 3.032 22.436 4.184L19.628 6.992C18.884 6.176 17.972 5.54 16.892 5.084C15.836 4.628 14.6 4.4 13.184 4.4C11.936 4.4 10.796 4.616 9.764 5.048C8.732 5.48 7.832 6.104 7.064 6.92C6.32 7.712 5.744 8.66 5.336 9.764C4.928 10.868 4.724 12.08 4.724 13.4C4.724 14.72 4.928 15.932 5.336 17.036C5.744 18.14 6.32 19.1 7.064 19.916C7.832 20.708 8.732 21.32 9.764 21.752C10.796 22.184 11.936 22.4 13.184 22.4C14.72 22.4 16.016 22.172 17.072 21.716C18.152 21.236 19.064 20.588 19.808 19.772L22.616 22.58C21.464 23.756 20.108 24.68 18.548 25.352C16.988 26.024 15.2 26.36 13.184 26.36ZM30.7694 26.18L23.3894 8.72L27.7454 8.72L32.7854 21.536L31.5254 21.536L36.8534 8.72L41.2454 8.72L33.2174 26.18L30.7694 26.18ZM25.6214 33.2L30.9854 22.148L33.2174 26.18L30.0134 33.2L25.6214 33.2ZM53.3724 26.36C52.0524 26.36 50.8764 26.084 49.8444 25.532C48.8124 24.956 47.9964 24.176 47.3964 23.192C46.8204 22.208 46.5324 21.092 46.5324 19.844L46.5324 14.876C46.5324 13.628 46.8324 12.512 47.4324 11.528C48.0324 10.544 48.8484 9.776 49.8804 9.224C50.9124 8.648 52.0764 8.36 53.3724 8.36C54.9324 8.36 56.3364 8.768 57.5844 9.584C58.8564 10.376 59.8524 11.456 60.5724 12.824C61.3164 14.168 61.6884 15.692 61.6884 17.396C61.6884 19.076 61.3164 20.6 60.5724 21.968C59.8524 23.312 58.8564 24.38 57.5844 25.172C56.3364 25.964 54.9324 26.36 53.3724 26.36ZM52.7244 22.616C53.6844 22.616 54.5244 22.4 55.2444 21.968C55.9884 21.512 56.5644 20.888 56.9724 20.096C57.4044 19.304 57.6204 18.392 57.6204 17.36C57.6204 16.328 57.4044 15.416 56.9724 14.624C56.5644 13.832 55.9884 13.22 55.2444 12.788C54.5244 12.332 53.6844 12.104 52.7244 12.104C51.7644 12.104 50.9124 12.332 50.1684 12.788C49.4244 13.22 48.8484 13.832 48.4404 14.624C48.0324 15.416 47.8284 16.328 47.8284 17.36C47.8284 18.392 48.0324 19.304 48.4404 20.096C48.8484 20.888 49.4244 21.512 50.1684 21.968C50.9124 22.4 51.7644 22.616 52.7244 22.616ZM44.1204 26L44.1204 0.0799967L48.0804 0.0799966L48.0804 12.968L47.3964 17.144L48.0804 21.356L48.0804 26L44.1204 26ZM73.7512 26.36C72.0232 26.36 70.4632 25.976 69.0712 25.208C67.7032 24.416 66.6112 23.336 65.7952 21.968C65.0032 20.6 64.6072 19.064 64.6072 17.36C64.6072 15.656 65.0032 14.132 65.7952 12.788C66.5872 11.42 67.6552 10.34 68.9992 9.548C70.3672 8.756 71.8792 8.36 73.5352 8.36C75.1432 8.36 76.5592 8.732 77.7832 9.476C79.0312 10.22 80.0032 11.24 80.6992 12.536C81.4192 13.832 81.7792 15.308 81.7792 16.964C81.7792 17.252 81.7552 17.552 81.7072 17.864C81.6832 18.152 81.6352 18.476 81.5632 18.836L67.3792 18.836L67.3792 15.596L79.5112 15.596L78.0352 16.892C77.9872 15.836 77.7832 14.948 77.4232 14.228C77.0632 13.508 76.5472 12.956 75.8752 12.572C75.2272 12.188 74.4232 11.996 73.4632 11.996C72.4552 11.996 71.5792 12.212 70.8352 12.644C70.0912 13.076 69.5152 13.688 69.1072 14.48C68.6992 15.248 68.4952 16.172 68.4952 17.252C68.4952 18.332 68.7112 19.28 69.1432 20.096C69.5752 20.912 70.1872 21.548 70.9792 22.004C71.7712 22.436 72.6832 22.652 73.7152 22.652C74.6032 22.652 75.4192 22.496 76.1632 22.184C76.9312 21.872 77.5792 21.416 78.1072 20.816L80.6272 23.372C79.7872 24.356 78.7672 25.1 77.5672 25.604C76.3672 26.108 75.0952 26.36 73.7512 26.36ZM85.6736 26L85.6736 8.72L89.6336 8.71999L89.6336 26L85.6736 26ZM89.6336 16.388L88.2656 15.704C88.2656 13.52 88.7456 11.756 89.7056 10.412C90.6896 9.044 92.1656 8.36 94.1336 8.36C94.9976 8.36 95.7776 8.51599 96.4736 8.82799C97.1696 9.13999 97.8176 9.64399 98.4176 10.34L95.8256 13.004C95.5136 12.668 95.1656 12.428 94.7816 12.284C94.3976 12.14 93.9536 12.068 93.4496 12.068C92.3456 12.068 91.4336 12.416 90.7136 13.112C89.9936 13.808 89.6336 14.9 89.6336 16.388Z" fill="white"/>
<path d="M113.675 26.36C111.851 26.36 110.159 26.036 108.599 25.388C107.063 24.716 105.719 23.792 104.567 22.616C103.415 21.416 102.527 20.036 101.903 18.476C101.279 16.892 100.967 15.2 100.967 13.4C100.967 11.6 101.279 9.91999 101.903 8.36C102.527 6.77599 103.415 5.39599 104.567 4.22C105.719 3.04399 107.063 2.11999 108.599 1.44799C110.159 0.775995 111.851 0.439995 113.675 0.439995C115.715 0.439995 117.479 0.775995 118.967 1.44799C120.455 2.11999 121.775 3.03199 122.927 4.184L120.119 6.992C119.375 6.17599 118.463 5.53999 117.383 5.08399C116.327 4.62799 115.091 4.39999 113.675 4.39999C112.427 4.39999 111.287 4.61599 110.255 5.048C109.223 5.48 108.323 6.10399 107.555 6.91999C106.811 7.71199 106.235 8.65999 105.827 9.76399C105.419 10.868 105.215 12.08 105.215 13.4C105.215 14.72 105.419 15.932 105.827 17.036C106.235 18.14 106.811 19.1 107.555 19.916C108.323 20.708 109.223 21.32 110.255 21.752C111.287 22.184 112.427 22.4 113.675 22.4C115.211 22.4 116.507 22.172 117.563 21.716C118.643 21.236 119.555 20.588 120.299 19.772L123.107 22.58C121.955 23.756 120.599 24.68 119.039 25.352C117.479 26.024 115.691 26.36 113.675 26.36ZM126.981 26L126.981 8.71999L130.941 8.71999L130.941 26L126.981 26ZM130.941 16.388L129.573 15.704C129.573 13.52 130.053 11.756 131.013 10.412C131.997 9.04399 133.473 8.35999 135.441 8.35999C136.305 8.35999 137.085 8.51599 137.781 8.82799C138.477 9.13999 139.125 9.64399 139.725 10.34L137.133 13.004C136.821 12.668 136.473 12.428 136.089 12.284C135.705 12.14 135.261 12.068 134.757 12.068C133.653 12.068 132.741 12.416 132.021 13.112C131.301 13.808 130.941 14.9 130.941 16.388ZM149.862 26.36C148.134 26.36 146.574 25.976 145.182 25.208C143.814 24.416 142.722 23.336 141.906 21.968C141.114 20.6 140.718 19.064 140.718 17.36C140.718 15.656 141.114 14.132 141.906 12.788C142.698 11.42 143.766 10.34 145.11 9.54799C146.478 8.75599 147.99 8.35999 149.646 8.35999C151.254 8.35999 152.67 8.73199 153.894 9.47599C155.142 10.22 156.114 11.24 156.81 12.536C157.53 13.832 157.89 15.308 157.89 16.964C157.89 17.252 157.866 17.552 157.818 17.864C157.794 18.152 157.746 18.476 157.674 18.836L143.49 18.836L143.49 15.596L155.622 15.596L154.146 16.892C154.098 15.836 153.894 14.948 153.534 14.228C153.174 13.508 152.658 12.956 151.986 12.572C151.338 12.188 150.534 11.996 149.574 11.996C148.566 11.996 147.69 12.212 146.946 12.644C146.202 13.076 145.626 13.688 145.218 14.48C144.81 15.248 144.606 16.172 144.606 17.252C144.606 18.332 144.822 19.28 145.254 20.096C145.686 20.912 146.298 21.548 147.09 22.004C147.882 22.436 148.794 22.652 149.826 22.652C150.714 22.652 151.53 22.496 152.274 22.184C153.042 21.872 153.69 21.416 154.218 20.816L156.738 23.372C155.898 24.356 154.878 25.1 153.678 25.604C152.478 26.108 151.206 26.36 149.862 26.36ZM166.613 26L159.665 8.71999L163.769 8.71999L168.449 21.284L167.225 21.32L171.797 8.71999L174.101 8.71999L178.673 21.32L177.449 21.284L182.129 8.71999L186.233 8.71999L179.285 26L176.981 26L172.301 14.048L173.597 14.048L168.917 26L166.613 26Z" fill="#FF3D00"/>
</svg>
