<svg width="35" height="35" viewBox="0 0 35 35" fill="none" xmlns="http://www.w3.org/2000/svg">
<path d="M22.4677 16.6703C23.2846 16.6703 24.0305 17.126 24.462 17.8897C24.5516 18.0479 24.7161 18.1368 24.8855 18.1368C25.2457 18.1459 25.497 17.7227 25.3083 17.4109C24.7105 16.3542 23.622 15.698 22.4674 15.698C18.0549 15.8443 18.084 22.6021 22.4674 22.7736C24.3266 22.7736 25.7829 21.2196 25.7829 19.2358C25.7714 18.596 24.8215 18.597 24.8103 19.2358C24.8103 20.6743 23.7813 21.8009 22.467 21.8009C19.3755 21.6914 19.3548 16.7613 22.4677 16.6703Z" fill="white"/>
<path d="M15.6578 19.2435C15.7317 17.3895 14.2057 15.6679 12.3419 15.6976C7.92911 15.8443 7.95886 22.6021 12.3419 22.7729C14.2015 22.7732 15.6578 21.2192 15.6578 19.2435ZM9.99901 19.2354C9.94406 17.0518 12.4532 15.8156 13.9582 17.3584C15.465 18.8364 14.4902 21.8454 12.3419 21.8009C11.0504 21.8006 9.99901 20.6501 9.99901 19.2354Z" fill="white"/>
<path d="M30.133 8.59661C26.3306 5.49246 21.69 5.21141 21.5751 5.62756L21.1866 6.07136C20.9525 6.32406 21.082 6.76751 21.4131 6.85711C21.649 6.92781 21.8779 7.00026 22.1008 7.07411C18.8151 6.39756 15.4123 6.53126 12.1304 7.17841C12.562 7.02931 13.019 6.88511 13.5017 6.74826C13.8328 6.66636 13.9683 6.22326 13.7425 5.96881C13.5986 5.81481 13.3736 5.43086 13.102 5.46131C13.095 5.43226 8.63075 5.49246 4.8987 8.59626C4.8714 8.64561 4.21865 9.82651 3.4357 11.8247C3.2166 12.4277 4.0951 12.7686 4.34115 12.1796C4.9785 10.5531 5.5357 9.46811 5.7002 9.15906C7.18455 8.07231 8.6388 7.41851 9.85925 7.02546C7.13205 8.23926 5.8346 9.46741 5.7632 9.53636C5.3621 9.92276 5.8444 10.5818 6.33335 10.3134C12.9616 6.78046 21.5895 6.62331 28.229 10.3148C28.7082 10.586 29.2069 9.91191 28.7943 9.53391C28.7166 9.46006 27.1328 7.98131 23.8131 6.66181C25.218 6.95546 27.2525 7.62641 29.3305 9.15836C29.7774 10.004 33.1731 16.6939 33.2158 24.7159C32.6688 25.4936 30.3679 28.2918 25.4612 28.5323C25.2225 28.246 24.7371 27.6625 24.2404 27.0567C27.4982 25.922 28.7887 23.8825 28.8454 23.7905C29.1159 23.3565 28.5902 22.843 28.1639 23.1293C21.9143 27.2397 13.325 27.1284 7.07255 23.1367C6.66445 22.829 6.09815 23.361 6.3785 23.788C6.4331 23.878 7.67455 25.8702 10.8337 27.0231C10.3244 27.6548 9.81655 28.2659 9.57085 28.5606C6.5787 28.5214 3.2243 26.8799 1.8159 24.725C1.8327 21.2285 2.47005 17.5923 3.70975 13.9149C3.9089 13.3094 2.9996 13.0007 2.78855 13.6041C1.53205 17.5097 0.692401 21.3986 0.909051 25.1124C1.00985 25.285 3.4476 29.3418 9.77455 29.542C9.92295 29.5469 10.0665 29.4832 10.162 29.3691C10.1725 29.3569 11.2033 28.1308 12.0307 27.0829C12.2449 26.826 12.1094 26.4029 11.7881 26.3157C13.3796 26.84 18.8196 27.8403 23.1158 26.4221C22.9002 26.5775 22.861 26.9128 23.0329 27.1155C23.8578 28.1329 24.8589 29.3289 24.8687 29.3408C24.9649 29.4552 25.0965 29.5193 25.2572 29.5147C30.9989 29.3327 33.6026 25.8891 34.0915 25.1593C34.5476 16.6358 30.1736 8.70441 30.133 8.59661Z" fill="white"/>
</svg>
