<svg width="100" height="29" viewBox="0 0 100 29" fill="none" xmlns="http://www.w3.org/2000/svg">
<path d="M10.8656 10.6993H6.20615V8.40944C6.20615 6.96617 6.16175 6.06253 6.07313 5.69911C5.98451 5.33568 5.77419 5.15397 5.44218 5.15369C5.15439 5.15369 4.95887 5.30964 4.85563 5.62098C4.75239 5.93261 4.7005 6.73208 4.7005 8.01969V20.1232C4.7005 21.2554 4.75221 22.0002 4.85582 22.3587C4.95942 22.7172 5.16535 22.896 5.47544 22.896C5.81476 22.896 6.04554 22.6934 6.16723 22.2884C6.28893 21.8833 6.34996 21.0942 6.34996 19.9206V16.9299H5.40911V13.0978H10.8656V26.6344H7.93254L7.50094 24.8274C7.18373 25.6057 6.78338 26.1902 6.30007 26.58C5.81677 26.9694 5.24666 27.1642 4.59013 27.1642C3.80807 27.1642 3.07571 26.8968 2.39323 26.3621C1.71076 25.8274 1.19236 25.1651 0.838244 24.376C0.484123 23.587 0.262661 22.7585 0.174039 21.8917C0.0854178 21.0242 0.0410156 19.7239 0.0410156 17.9895V10.4968C0.0410156 8.08768 0.133292 6.3377 0.317844 5.24714C0.502396 4.15659 1.03175 3.15689 1.90609 2.24833C2.78043 1.33978 3.91131 0.885498 5.29838 0.885498C6.66351 0.885498 7.79622 1.27988 8.69633 2.06894C9.59643 2.85886 10.1832 3.79635 10.4563 4.88141C10.7293 5.96647 10.8658 7.54226 10.8658 9.60908V10.6993H10.8656ZM16.1559 13.9699H11.9611V12.5839C11.9611 10.9846 12.0921 9.75115 12.3539 8.88426C12.616 8.01737 13.1417 7.25118 13.9312 6.58683C14.7206 5.9222 15.7464 5.59002 17.0083 5.59002C18.5207 5.59002 19.8544 5.96618 20.6219 6.71935C21.3893 7.47224 21.8505 8.39642 22.0053 9.49189C22.1602 10.5877 22.2375 12.8437 22.2377 16.2603V26.6347H17.6942V24.7964C17.4213 25.5337 17.0688 26.0866 16.6372 26.4553C16.2056 26.8239 15.6909 27.0079 15.0933 27.0079C14.3113 27.0079 13.5935 26.6992 12.9408 26.0814C12.2876 25.4634 11.9611 24.1107 11.9611 22.0236V20.3257C11.9611 18.7783 12.1347 17.7245 12.4815 17.1631C12.8281 16.6026 13.6878 15.9487 15.0603 15.2007C16.5285 14.3906 17.3144 13.8454 17.4176 13.5653C17.5208 13.2853 17.5729 12.7141 17.5729 11.8518C17.5729 10.772 17.5155 10.0683 17.4012 9.74102C17.2868 9.41406 17.0967 9.25058 16.8312 9.25058C16.5286 9.25058 16.3404 9.38831 16.2668 9.66348C16.193 9.93836 16.1561 10.6525 16.1561 11.8052V13.9701L16.1559 13.9699ZM17.5727 16.8052C16.857 17.5424 16.442 18.1605 16.3276 18.6588C16.2133 19.157 16.1561 19.8737 16.1561 20.8083C16.1561 21.8781 16.2058 22.5687 16.3055 22.8801C16.4051 23.1917 16.6025 23.3474 16.8976 23.3474C17.1779 23.3474 17.3606 23.2253 17.4454 22.9811C17.5303 22.7371 17.5727 22.0956 17.5727 21.0575V16.8055V16.8052ZM27.9986 5.96328L27.9212 7.92594C28.268 7.1473 28.6813 6.5631 29.1608 6.17335C29.6404 5.78389 30.1864 5.58887 30.7989 5.58887C31.9943 5.58887 32.935 6.36779 33.6213 7.92565C33.9977 7.14701 34.4218 6.56281 34.8941 6.17306C35.3663 5.7836 35.8902 5.58858 36.4658 5.58858C37.2259 5.58858 37.8548 5.84841 38.3529 6.3675C38.851 6.88689 39.1701 7.52287 39.3104 8.27576C39.4506 9.02894 39.5205 10.2514 39.5205 11.9444V26.6338H35.1817V13.1597C35.1817 11.3941 35.1394 10.3009 35.0546 9.88078C34.9696 9.46006 34.7723 9.24971 34.4625 9.24971C34.1451 9.24971 33.9405 9.45746 33.8482 9.87268C33.7559 10.2879 33.7099 11.3837 33.7099 13.1594V26.6335H29.3711V13.5023C29.3711 11.4768 29.3364 10.2621 29.266 9.85705C29.1957 9.45196 29.0024 9.24942 28.685 9.24942C28.4858 9.24942 28.3159 9.3559 28.1759 9.56886C28.0386 9.7719 27.9554 10.0503 27.9435 10.3472C27.9288 10.6539 27.9215 11.3058 27.9215 12.3026V26.6335H23.4375V5.96242H27.9986V5.96357V5.96328ZM51.1974 16.6649H45.4087V21.1353C45.4087 22.0699 45.4567 22.6726 45.5527 22.9426C45.6484 23.2125 45.833 23.3474 46.106 23.3474C46.4453 23.3474 46.6724 23.168 46.7868 22.81C46.9012 22.4521 46.9582 21.7586 46.9582 20.7305V18.0042H51.1974V19.5311C51.1974 20.8083 51.1402 21.7898 51.0258 22.4753C50.9114 23.1604 50.6439 23.8925 50.2233 24.6714C49.8027 25.4504 49.2695 26.0343 48.6239 26.4243C47.9783 26.8138 47.1685 27.0085 46.1944 27.0085C45.2499 27.0085 44.4165 26.8164 43.6931 26.4321C42.97 26.0479 42.4074 25.5207 42.0052 24.8511C41.6032 24.1813 41.3246 23.444 41.1696 22.639C41.0147 21.8344 40.9376 20.6634 40.9376 19.1263V13.0978C40.9376 11.2911 41.1108 9.86573 41.4576 8.82205C41.8044 7.77837 42.3725 6.9789 43.1621 6.42306C43.9516 5.86751 44.8592 5.58973 45.8847 5.58973C47.1391 5.58973 48.1742 5.92451 48.9894 6.59464C49.8047 7.2642 50.3766 8.1525 50.7051 9.2581C51.0333 10.3643 51.1974 11.9192 51.1974 13.9236V16.6651V16.6649ZM46.7148 13.3003V11.7893C46.7148 10.7196 46.6742 10.0289 46.5931 9.71759C46.512 9.40596 46.3459 9.25029 46.095 9.25029C45.7851 9.25029 45.5932 9.38281 45.5196 9.64756C45.4458 9.91232 45.4089 10.6264 45.4089 11.7893V13.3003H46.7148Z" fill="white"/>
<path d="M62.675 8.46915H58.3474V6.59996C58.3474 5.72757 58.292 5.17202 58.1815 4.93302C58.0709 4.69431 57.8864 4.5751 57.6282 4.57481C57.3477 4.57481 57.1356 4.73597 56.9917 5.05773C56.8479 5.37978 56.7758 5.86791 56.7758 6.52184C56.7758 7.36326 56.8569 7.99694 57.0193 8.42257C57.1743 8.84849 57.6134 9.36238 58.3364 9.96451C60.41 11.6989 61.7159 13.1213 62.2546 14.2324C62.7931 15.3441 63.0624 17.1352 63.0624 19.6068C63.0624 21.4033 62.9131 22.7274 62.6142 23.5792C62.3154 24.4305 61.738 25.1446 60.8821 25.721C60.0263 26.2968 59.03 26.5853 57.8939 26.5853C56.6469 26.5853 55.5826 26.2531 54.7007 25.5885C53.8189 24.9239 53.2415 24.0775 52.9685 23.0495C52.6955 22.0214 52.5592 20.5622 52.5592 18.6725V17.0212H56.8867V20.0894C56.8867 21.0347 56.9475 21.6421 57.0694 21.912C57.1909 22.1823 57.4069 22.3168 57.7168 22.3168C58.0265 22.3168 58.2573 22.1455 58.4084 21.8029C58.5597 21.4601 58.6354 20.9517 58.6354 20.2766C58.6354 18.7914 58.4914 17.8206 58.2038 17.3637C57.9087 16.9066 57.1818 16.1436 56.0233 15.0738C54.8648 13.994 53.9521 13.2098 53.5757 12.7214C53.1993 12.233 52.8876 11.5582 52.6405 10.6966C52.3933 9.8343 52.2698 8.7342 52.2698 7.39451C52.2698 5.46282 52.4452 3.7438 52.7955 2.85087C53.1459 1.95764 53.7124 1.25916 54.4944 0.755689C55.2765 0.252222 56.3666 0.000488281 57.4734 0.000488281C58.6836 0.000488281 59.7147 0.27537 60.5669 0.82629C61.4192 1.37721 61.9838 2.06991 62.2604 2.90584C62.5373 3.74206 62.6754 5.46861 62.6754 7.47293V8.46915H62.675ZM69.3103 2.62778V5.11676H70.5651V8.38785H69.3103V20.2144C69.3103 21.5749 69.36 22.3324 69.4596 22.4887C69.5594 22.6444 69.7807 22.7225 70.5112 22.7225V26.0558H68.7072C67.6888 26.0558 66.9621 25.9965 66.5267 25.877C66.0913 25.7575 65.7077 25.4823 65.3755 25.0512C65.0433 24.62 64.8369 24.127 64.7555 23.5714C64.6742 23.0159 64.6339 21.7098 64.6339 19.6537V8.38814H63.6709V5.11676H64.6339V2.62778H69.3103ZM81.7634 12.6436V17.7063C81.7634 19.5651 81.6971 20.9282 81.5642 21.7954C81.4312 22.6623 81.1473 23.4725 80.712 24.2251C80.2766 24.9783 79.718 25.5335 79.0351 25.8917C78.3523 26.2499 77.5686 26.4293 76.6831 26.4293C75.6946 26.4293 74.8569 26.276 74.1706 25.9698C73.4845 25.6631 72.9513 25.2013 72.5714 24.5833C72.1914 23.9655 71.9202 23.2176 71.7579 22.3403C71.5955 21.4627 71.5144 20.1464 71.5144 18.3915V13.0953C71.5144 11.174 71.662 9.67342 71.9571 8.593C72.2522 7.51257 72.7834 6.64626 73.551 5.99175C74.3185 5.33782 75.2997 5.01057 76.4951 5.01057C77.4986 5.01057 78.36 5.22092 79.0795 5.64135C79.7991 6.06206 80.3542 6.61009 80.7453 7.28485C81.1363 7.9599 81.4038 8.65578 81.5478 9.3725C81.6914 10.0889 81.7634 11.1795 81.7634 12.6436ZM77.2921 11.0863C77.2921 10.027 77.2512 9.35977 77.1701 9.0846C77.0889 8.80943 76.9155 8.6717 76.6498 8.6717C76.3843 8.6717 76.2071 8.80943 76.1187 9.0846C76.0302 9.35977 75.9858 10.027 75.9858 11.0863V20.417C75.9858 21.3929 76.03 22.0286 76.1187 22.3252C76.2071 22.6209 76.3807 22.7691 76.6389 22.7691C76.9046 22.7691 77.0798 22.6339 77.1646 22.364C77.2495 22.094 77.2919 21.5127 77.2919 20.6192V11.0866L77.2921 11.0863ZM87.5534 5.38469L87.4759 7.2073C87.8743 6.47004 88.3134 5.9197 88.793 5.55599C89.2725 5.19257 89.7963 5.01086 90.3646 5.01086C93.018 4.85866 93.9438 7.15898 93.9756 11.1017V19.8093C93.9756 21.6889 93.8963 23.026 93.7377 23.8203C92.8588 26.5922 90.4556 27.0318 88.7709 25.8842C88.2985 25.5208 87.867 24.9809 87.4759 24.2638V28.9996H83.0043V5.38469H87.5534ZM88.8263 11.3974C88.8263 10.1205 88.793 9.34675 88.7267 9.07679C88.6602 8.80682 88.4758 8.6717 88.1732 8.6717C87.8781 8.6717 87.6881 8.82766 87.6033 9.13929C87.5183 9.45063 87.4761 10.2038 87.4761 11.3979V19.965C87.4761 21.2112 87.5203 21.9901 87.609 22.3015C87.6974 22.6131 87.8892 22.7688 88.1845 22.7688C88.4721 22.7688 88.6512 22.6261 88.7212 22.3405C88.7912 22.055 88.8263 21.3617 88.8263 20.2607V11.3974Z" fill="#FD0000"/>
<path d="M95.4722 5.29855V3.42212H95.9977C96.1033 3.42212 96.1837 3.4389 96.2385 3.47276C96.2935 3.50632 96.3374 3.56593 96.3703 3.65128C96.4031 3.73664 96.4196 3.83068 96.4196 3.93427C96.4196 4.06737 96.3925 4.17963 96.3381 4.27078C96.2836 4.36192 96.1996 4.42037 96.0859 4.44497C96.1274 4.47651 96.159 4.50776 96.1806 4.53843C96.2263 4.60469 96.2696 4.68831 96.3107 4.78785L96.5168 5.29884H96.3196L96.1629 4.90822C96.1172 4.79537 96.0794 4.70914 96.0498 4.64954C96.0202 4.58993 95.9935 4.54798 95.9701 4.52396C95.9481 4.50116 95.9239 4.48425 95.8985 4.4739C95.8695 4.46671 95.8402 4.46381 95.8109 4.46522H95.6291V5.29855H95.4722ZM95.6289 4.25024H95.9661C96.0379 4.25024 96.094 4.23837 96.1342 4.21494C96.1721 4.19477 96.2046 4.15503 96.2265 4.10209C96.2475 4.05059 96.2581 3.99445 96.2581 3.93398C96.2581 3.84515 96.238 3.77194 96.197 3.71494C96.1561 3.65794 96.092 3.62929 96.0041 3.62929H95.6289V4.25024Z" fill="#FF0000"/>
<path d="M96.8771 4.37041C96.8771 4.66994 96.821 4.96274 96.7159 5.21179C96.6109 5.46084 96.4615 5.65496 96.2867 5.76958C96.112 5.88421 95.9197 5.9142 95.7342 5.85576C95.5486 5.79733 95.3782 5.65309 95.2445 5.44129C95.1107 5.22949 95.0196 4.95964 94.9827 4.66586C94.9458 4.37209 94.9648 4.06758 95.0372 3.79085C95.1095 3.51412 95.2321 3.2776 95.3894 3.11119C95.5467 2.94478 95.7316 2.85596 95.9207 2.85596C96.0463 2.85588 96.1707 2.895 96.2868 2.97108C96.4028 3.04716 96.5083 3.15872 96.5971 3.29936C96.6859 3.44001 96.7564 3.60699 96.8044 3.79076C96.8525 3.97454 96.8772 4.17151 96.8771 4.37041V4.37041Z" stroke="#FF0000" stroke-width="4.7094"/>
</svg>
