<svg width="46" height="38" viewBox="0 0 46 38" fill="none" xmlns="http://www.w3.org/2000/svg">
<path fill-rule="evenodd" clip-rule="evenodd" d="M29.41 24.8633C27.7157 24.8633 26.2919 23.5016 26.2919 21.8227C26.2919 20.1438 27.7157 18.7373 29.41 18.7373C31.1043 18.7373 32.4785 20.1438 32.4785 21.8227C32.4785 23.5016 31.1043 24.8633 29.41 24.8633ZM30.1297 30.7646C28.5515 32.327 26.1177 33.0864 22.6893 33.0864C22.6822 33.0864 22.6737 33.085 22.6653 33.085C22.6582 33.085 22.6497 33.0864 22.6412 33.0864C19.2128 33.0864 16.7804 32.327 15.2037 30.7646C14.7192 30.2846 14.7192 29.5083 15.2037 29.0296C15.6867 28.5509 16.4702 28.5509 16.9547 29.0296C18.0427 30.1077 19.9028 30.6327 22.6412 30.6327C22.6497 30.6327 22.6582 30.6341 22.6653 30.6341C22.6737 30.6341 22.6822 30.6327 22.6893 30.6327C25.4277 30.6327 27.2892 30.1077 28.3787 29.0296C28.8632 28.5495 29.6466 28.5509 30.1297 29.0296C30.6127 29.5097 30.6127 30.286 30.1297 30.7646ZM12.8548 21.8227C12.8548 20.1452 14.2758 18.7373 15.9687 18.7373C17.663 18.7373 19.0372 20.1452 19.0372 21.8227C19.0372 23.5016 17.663 24.8633 15.9687 24.8633C14.2758 24.8633 12.8548 23.5016 12.8548 21.8227ZM37.774 2.45376C38.9215 2.45376 39.8551 3.37883 39.8551 4.51447C39.8551 5.65151 38.9215 6.57658 37.774 6.57658C36.6265 6.57658 35.6929 5.65151 35.6929 4.51447C35.6929 3.37883 36.6265 2.45376 37.774 2.45376ZM45.3333 18.4832C45.3333 15.5058 42.8896 13.0844 39.8848 13.0844C38.5843 13.0844 37.3901 13.5392 36.4522 14.2958C33.1302 12.2267 28.9142 10.9801 24.395 10.7162L26.7523 3.3311L33.2308 4.84295C33.4007 7.18019 35.3727 9.03034 37.774 9.03034C40.2857 9.03034 42.33 7.00472 42.33 4.51447C42.33 2.02561 40.2857 0 37.774 0C36.0173 0 34.4902 0.991048 33.7294 2.43832L26.2013 0.682224C25.5708 0.53483 24.9333 0.89419 24.7378 1.50623L21.811 10.6727C16.9419 10.7906 12.3647 12.0414 8.79892 14.2312C7.87383 13.5139 6.71075 13.0844 5.4485 13.0844C2.44375 13.0844 0 15.5058 0 18.4832C0 20.3235 0.935 21.9505 2.35875 22.9247C2.29925 23.3528 2.26808 23.7838 2.26808 24.2203C2.26808 27.9417 4.45117 31.4033 8.415 33.9666C12.2145 36.4246 17.2437 37.7778 22.5746 37.7778C27.9055 37.7778 32.9347 36.4246 36.7342 33.9666C40.698 31.4033 42.8811 27.9417 42.8811 24.2203C42.8811 23.8231 42.8542 23.4286 42.8046 23.037C44.3232 22.0782 45.3333 20.3951 45.3333 18.4832Z" fill="white"/>
</svg>
