<svg width="35" height="35" viewBox="0 0 35 35" fill="none" xmlns="http://www.w3.org/2000/svg">
<path d="M34.5215 17.5683C34.5215 19.9472 34.4736 22.3329 34.5352 24.7118C34.6377 28.9227 31.9922 32.1767 28.6221 33.6259C27.2686 34.2069 25.8467 34.5145 24.377 34.5145C19.7764 34.5214 15.1689 34.5829 10.5684 34.494C7.10254 34.4257 4.25195 32.9765 2.20801 30.119C1.13477 28.6151 0.62207 26.9061 0.62207 25.0536C0.62207 20.1522 0.62207 15.2577 0.62207 10.3563C0.62207 6.35732 2.57031 3.56142 6.0293 1.74306C7.5332 0.956927 9.16699 0.621966 10.8691 0.61513C15.333 0.61513 19.8037 0.587786 24.2676 0.628802C27.7334 0.656145 30.625 1.98232 32.7578 4.77138C33.9473 6.32997 34.5215 8.12099 34.5215 10.0897C34.5215 12.578 34.5215 15.0731 34.5215 17.5683ZM3.14453 17.5683C3.14453 20.077 3.14453 22.579 3.14453 25.0878C3.14453 26.2089 3.4043 27.2616 3.98535 28.2118C5.50977 30.7069 7.81348 31.9237 10.6709 31.9716C15.2578 32.0399 19.8516 31.9989 24.4453 31.9852C25.5732 31.9852 26.667 31.7528 27.6855 31.2675C30.4609 29.9413 32.0127 27.829 31.999 24.6571C31.9717 19.8036 31.9922 14.9501 31.9922 10.0966C31.9922 8.72255 31.6025 7.46474 30.7891 6.35732C29.2168 4.23134 27.043 3.18544 24.4453 3.1581C19.8652 3.10341 15.2852 3.13759 10.7051 3.14443C9.72754 3.14443 8.78418 3.34267 7.86816 3.68447C5.35254 4.62099 3.01465 6.99306 3.12402 10.4862C3.20605 12.8515 3.14453 15.2099 3.14453 17.5683Z" fill="white"/>
<path d="M17.6094 24.8145C13.2002 24.8145 9.64552 21.3008 9.63868 16.9258C9.63185 12.6192 13.2139 9.09181 17.5957 9.09181C21.9912 9.08497 25.5596 12.6055 25.5664 16.9463C25.5664 21.2803 22.0049 24.8076 17.6094 24.8145ZM17.6094 22.2852C20.6104 22.2852 23.044 19.8858 23.0371 16.9326C23.0303 14.0068 20.5967 11.6143 17.6094 11.6143C14.6084 11.6143 12.1611 14 12.1611 16.9463C12.168 19.8994 14.6084 22.292 17.6094 22.2852Z" fill="white"/>
<path d="M26.4892 6.69922C27.4121 6.69922 28.164 7.48535 28.164 8.44922C28.1572 9.41309 27.3984 10.1924 26.4756 10.1855C25.5664 10.1787 24.8213 9.39941 24.8213 8.45605C24.8144 7.49219 25.5664 6.69922 26.4892 6.69922Z" fill="white"/>
</svg>
