<svg width="35" height="43" viewBox="0 0 35 43" fill="none" xmlns="http://www.w3.org/2000/svg">
<path d="M17.3333 5.75L17.3333 0L8.66667 7.66667L17.3333 15.3333L17.3333 9.58333C24.505 9.58333 30.3333 14.7392 30.3333 21.0833C30.3333 23.0192 29.7917 24.8592 28.8167 26.45L31.98 29.2483C33.67 26.8908 34.6667 24.0925 34.6667 21.0833C34.6667 12.6117 26.91 5.75 17.3333 5.75ZM17.3333 32.5833C10.1617 32.5833 4.33333 27.4275 4.33333 21.0833C4.33333 19.1475 4.875 17.3075 5.85 15.7167L2.68667 12.9183C0.996666 15.2758 7.15827e-08 18.0742 8.35005e-08 21.0833C1.17053e-07 29.555 7.75667 36.4167 17.3333 36.4167L17.3333 42.1667L26 34.5L17.3333 26.8333L17.3333 32.5833Z" fill="white"/>
</svg>
