<svg width="35" height="31" viewBox="0 0 35 31" fill="none" xmlns="http://www.w3.org/2000/svg">
<path fill-rule="evenodd" clip-rule="evenodd" d="M35.0001 4.36944C33.7141 4.95515 32.3294 5.35108 30.8769 5.528C32.36 4.618 33.4983 3.17479 34.0345 1.45597C32.6458 2.2987 31.1112 2.91175 29.4717 3.24042C28.1652 1.81007 26.2976 0.916748 24.231 0.916748C20.2681 0.916748 17.053 4.21358 17.053 8.2796C17.053 8.85683 17.1145 9.4171 17.2378 9.95659C11.2703 9.6487 5.98041 6.72046 2.43639 2.26069C1.81814 3.35198 1.46459 4.618 1.46459 5.96632C1.46459 8.51968 2.73225 10.7736 4.65916 12.0946C3.4842 12.0588 2.37459 11.7238 1.40498 11.1761V11.2666C1.40498 14.8353 3.88041 17.8119 7.1674 18.4862C6.56557 18.659 5.93064 18.7454 5.27522 18.7454C4.81311 18.7454 4.36111 18.7011 3.92334 18.6147C4.83744 21.5389 7.4876 23.6687 10.6308 23.7255C8.17365 25.7017 5.07588 26.8791 1.71287 26.8791C1.13346 26.8791 0.560332 26.8455 -0.000488281 26.7779C3.17768 28.8634 6.95357 30.0832 11.0067 30.0832C24.2162 30.0832 31.4372 18.8652 31.4372 9.13464C31.4372 8.81444 31.4309 8.49425 31.4186 8.18034C32.8224 7.14183 34.0406 5.84628 35.0001 4.36944Z" fill="white"/>
</svg>
