<svg width="28" height="27" viewBox="0 0 28 27" fill="none" xmlns="http://www.w3.org/2000/svg">
<path d="M28 12.5777H26.643V6.61866C26.643 5.19003 25.4255 4.0278 23.9289 4.0278H22.091L20.2101 0.799577C19.9234 0.306221 19.3779 0 18.7863 0C18.5105 0 18.2369 0.0678878 17.9954 0.195843L10.777 4.02771H2.71406C1.2175 4.02771 0 5.18995 0 6.61858V24.4091C0 25.8378 1.2175 27 2.71406 27H23.9289C25.4255 27 26.643 25.8378 26.643 24.4091V19.1844H28V12.5777ZM23.9289 5.06409C24.7648 5.06409 25.4477 5.67033 25.5394 6.44604H23.4995L22.695 5.06409H23.9289ZM18.5235 1.1016C18.7781 0.965345 19.1206 1.06065 19.2612 1.30269L22.2575 6.44555H8.45595L18.5235 1.1016ZM25.5573 24.4091C25.5573 25.2662 24.8266 25.9637 23.9288 25.9637H2.71406C1.81624 25.9637 1.08557 25.2662 1.08557 24.4091V6.61866C1.08557 5.7616 1.81624 5.06409 2.71406 5.06409H8.82505L6.22171 6.44612H3.05334C2.75317 6.44612 2.51051 6.67824 2.51051 6.96431C2.51051 7.25037 2.75317 7.4825 3.05334 7.4825H4.26924H24.1031H25.5573V12.5782H21.5877C19.7443 12.5782 18.244 14.0104 18.244 15.7701V15.993C18.244 17.7527 19.7444 19.1849 21.5877 19.1849H25.5573V24.4091ZM26.9143 18.1481H26.643H21.5877C20.3425 18.1481 19.3296 17.1812 19.3296 15.9924V15.7696C19.3296 14.5809 20.3425 13.6139 21.5877 13.6139H26.643H26.9143V18.1481ZM23.2503 15.9236C23.2503 16.5558 22.714 17.0677 22.0519 17.0677C21.3896 17.0677 20.8534 16.5557 20.8534 15.9236C20.8534 15.2914 21.3897 14.7795 22.0519 14.7795C22.7141 14.7794 23.2503 15.2919 23.2503 15.9236Z" fill="white"/>
</svg>
